<?xml version="1.0" standalone="no"?>
<!DOCTYPE svg PUBLIC "-//W3C//DTD SVG 20010904//EN"
 "http://www.w3.org/TR/2001/REC-SVG-20010904/DTD/svg10.dtd">
<svg version="1.0" xmlns="http://www.w3.org/2000/svg"
 width="546.000000pt" height="307.000000pt" viewBox="0 0 546.000000 307.000000"
 preserveAspectRatio="xMidYMid meet">
<metadata>
Created by potrace 1.16, written by Peter Selinger 2001-2019
</metadata>
<g transform="translate(0.000000,307.000000) scale(0.100000,-0.100000)"
fill="#000000" stroke="none">
<path d="M3130 2519 c-173 -21 -319 -54 -303 -69 4 -5 136 -11 293 -15 327 -7
458 -17 608 -46 431 -83 764 -276 890 -516 l27 -53 68 0 c60 0 67 2 67 20 0
30 -37 116 -76 178 -25 38 -29 51 -15 38 34 -31 94 -127 113 -181 17 -50 48
-74 48 -38 0 34 -40 139 -74 192 -148 236 -481 405 -936 476 -123 20 -591 29
-710 14z"/>
<path d="M3131 1928 c21 -18 63 -55 94 -83 l58 -50 347 0 c192 0 347 1 346 2
-9 9 -332 127 -381 139 -41 11 -131 17 -280 20 l-220 5 36 -33z"/>
<path d="M2838 1935 c-4 -5 -94 -9 -200 -10 -349 -4 -489 -33 -715 -151 -170
-89 -171 -84 7 -86 85 -1 137 -3 115 -5 -392 -30 -600 -68 -823 -149 -52 -19
-97 -34 -101 -33 -3 0 43 25 103 55 109 54 109 54 65 54 -115 -1 -267 -61
-298 -118 -10 -18 -3 -20 97 -32 181 -22 313 -15 870 41 112 11 206 19 208 16
7 -6 -258 -115 -308 -127 -24 -5 -81 -10 -127 -10 -77 0 -89 3 -125 28 l-39
27 -245 -1 -245 -1 -22 -27 c-16 -21 -29 -26 -63 -26 -34 0 -42 -3 -42 -18 0
-18 15 -19 222 -26 122 -4 323 -5 447 -2 124 3 217 3 206 1 -11 -3 -135 -14
-275 -25 -234 -18 -265 -18 -375 -5 -66 8 -146 18 -178 21 l-57 7 0 -41 c0
-40 1 -41 38 -47 20 -3 55 -10 77 -15 33 -7 28 -7 -22 -3 -54 5 -63 3 -63 -11
0 -10 8 -16 22 -16 12 0 78 -14 147 -31 l126 -32 155 27 c125 21 183 26 300
25 l145 -2 -120 -8 c-66 -4 -200 -19 -299 -34 l-178 -26 -117 27 c-64 15 -136
28 -161 28 -43 1 -45 0 -48 -29 -1 -16 2 -36 6 -43 10 -15 71 -31 119 -32 22
0 46 -12 83 -44 30 -25 66 -47 87 -51 19 -3 33 -8 31 -10 -3 -3 -272 -35 -298
-35 -5 0 -10 -4 -10 -10 0 -15 653 -12 1020 5 299 14 476 26 865 60 338 29
642 54 753 61 109 6 115 8 150 38 l35 31 -34 5 c-32 5 -34 7 -37 50 l-3 44
-20 -44 c-34 -76 -89 -121 -146 -119 -26 0 -25 2 12 15 76 28 119 92 131 195
8 70 -11 261 -34 336 -16 51 -22 59 -52 69 -19 7 -102 15 -185 19 -147 7 -151
7 -225 -20 l-75 -28 -500 -7 c-593 -9 -703 -21 -940 -104 -38 -13 -79 -27 -90
-31 -11 -4 3 7 30 24 71 43 195 86 319 110 89 18 146 21 339 21 l232 0 84 94
c46 52 100 103 120 114 45 25 111 39 111 23 0 -6 -11 -11 -25 -11 -44 0 -107
-40 -178 -114 -111 -116 -127 -106 168 -106 l256 0 62 27 c53 23 76 27 159 27
113 1 114 -1 -30 80 -48 27 -105 64 -127 81 -67 53 -105 68 -185 73 -41 2 -78
1 -82 -3z m277 -400 c-15 -6 -662 -125 -677 -125 -11 0 -62 79 -55 86 1 1 135
10 297 19 162 8 306 17 320 19 37 4 127 5 115 1z m437 -114 c34 -40 51 -108
46 -186 -4 -70 -24 -108 -71 -135 -24 -13 -28 -13 -54 6 -42 31 -64 77 -70
144 -14 151 78 256 149 171z m-1222 -10 c14 -10 36 -40 50 -67 34 -67 36 -198
3 -261 -32 -59 -66 -83 -121 -83 -38 0 -49 5 -78 36 -71 75 -84 229 -27 322
47 78 112 98 173 53z m960 -310 l38 -39 -141 -6 c-78 -3 -254 -8 -392 -11
-137 -3 -288 -7 -335 -10 l-85 -4 80 9 c131 15 222 29 365 57 142 27 249 39
364 42 67 1 69 0 106 -38z m-1309 -73 c5 -7 7 -13 6 -15 -2 -1 -128 -9 -282
-18 -154 -9 -283 -19 -287 -21 -4 -3 -8 -1 -8 5 0 5 8 12 18 15 11 4 30 18 43
32 l24 27 239 -7 c172 -4 242 -9 247 -18z"/>
<path d="M3662 1765 c3 -3 48 -10 99 -16 52 -6 161 -21 243 -35 169 -27 204
-43 300 -133 l58 -56 -33 67 c-18 37 -29 71 -25 75 4 4 75 8 156 8 161 0 162
4 8 35 -174 36 -428 60 -627 60 -101 0 -182 -2 -179 -5z"/>
<path d="M4091 1642 c-14 -26 12 -78 51 -102 67 -41 123 -14 92 44 -17 34 -18
39 -3 30 6 -3 17 -20 25 -38 7 -17 13 -24 14 -15 0 18 -39 73 -47 65 -3 -3
-22 4 -41 15 -46 24 -78 24 -91 1z"/>
<path d="M4353 1654 c-7 -3 -13 -13 -13 -21 0 -23 68 -130 88 -138 9 -4 82 -9
161 -12 l144 -6 -7 39 c-13 71 -37 108 -81 123 -40 14 -268 26 -292 15z"/>
<path d="M3768 1231 c2 -31 6 -58 8 -60 22 -25 743 -35 913 -13 117 16 153 33
149 70 -3 30 0 29 -93 4 -48 -13 -111 -16 -325 -16 -308 0 -373 6 -405 38 -21
21 -36 24 -137 28 l-114 5 4 -56z"/>
<path d="M4281 1094 c7 -8 31 -25 53 -37 75 -39 196 -23 271 37 18 14 6 15
-159 16 -161 0 -177 -2 -165 -16z"/>
<path d="M1044 878 c9 -13 43 -50 76 -84 218 -220 699 -347 1191 -314 224 15
396 46 375 68 -4 4 -139 10 -299 13 -357 8 -487 26 -702 96 -144 47 -339 155
-399 222 -17 18 -30 21 -104 21 -79 0 -84 -1 -71 -17 13 -17 13 -17 -7 0 -11
9 -33 17 -48 17 -26 0 -27 -1 -12 -22z"/>
<path d="M4135 854 c-197 -128 -472 -252 -743 -334 -204 -63 -231 -72 -182
-64 120 21 422 125 625 215 169 76 430 228 390 229 -11 0 -51 -21 -90 -46z"/>
</g>
</svg>
